<?xml version="1.0" encoding="utf-8"?>
<!-- Generator: Adobe Illustrator 25.2.0, SVG Export Plug-In . SVG Version: 6.00 Build 0)  -->
<svg version="1.1" id="Layer_1" xmlns="http://www.w3.org/2000/svg" xmlns:xlink="http://www.w3.org/1999/xlink" x="0px" y="0px"
	 viewBox="0 0 1720.5 254" style="enable-background:new 0 0 1720.5 254;" xml:space="preserve">
<style type="text/css">
	.st0{fill:none;stroke:#FFFFFF;stroke-width:13;}
	.st1{fill:#FFFFFF;}
</style>
<path class="st0" d="M104.1,17.6H30.3c-9.3,0-16.8,7.7-16.8,16.8l0,0V46l0,38.7v116c0,21.3,17.4,38.7,38.7,38.7h196.3
	c21.3,0,38.7-17.4,38.7-38.7v-116c0-21.3-17.4-38.7-38.7-38.7H146.6L104.1,17.6z"/>
<g>
	<circle class="st0" cx="150.1" cy="82.8" r="11"/>
	<circle class="st0" cx="150.5" cy="203.5" r="11"/>
	<circle class="st0" cx="89.8" cy="111.9" r="11"/>
	<circle class="st0" cx="210.5" cy="111.5" r="11"/>
	<circle class="st0" cx="90.2" cy="174.6" r="11"/>
	<circle class="st0" cx="210.9" cy="174.3" r="11"/>
	<line class="st0" x1="210.8" y1="163.3" x2="210.6" y2="122.5"/>
	<line class="st0" x1="90.1" y1="163.7" x2="89.9" y2="122.9"/>
	<line class="st0" x1="140.6" y1="140.5" x2="99.4" y2="117.3"/>
	<line class="st0" x1="150.2" y1="93.8" x2="150.3" y2="137.1"/>
	<line class="st0" x1="201" y1="116.9" x2="159.8" y2="140.6"/>
	<line class="st0" x1="200.9" y1="169.6" x2="161.2" y2="151"/>
	<line class="st0" x1="150.5" y1="192.6" x2="150.4" y2="154.8"/>
	<line class="st0" x1="100.1" y1="169.9" x2="140.4" y2="150.7"/>
	<line class="st0" x1="99.7" y1="107.1" x2="140.3" y2="87.6"/>
	<line class="st0" x1="200.6" y1="106.8" x2="160" y2="87.6"/>
	<line class="st0" x1="100.1" y1="179.4" x2="140.6" y2="198.8"/>
	<line class="st0" x1="201" y1="179.1" x2="160.4" y2="198.8"/>
	<circle class="st0" cx="150.2" cy="146" r="11"/>
</g>
<g>
	<path class="st1" d="M456.5,214.5c-14,5.3-30.4,6-37.3,6c-19.3,0-39.9-6.9-54.6-21.5c-14-13.7-21.5-33.7-21.5-54.6
		c0-22.8,8.7-42.4,22.2-56.1c10.4-10.4,28.2-22.4,55.9-22.4c11.1,0,23.5,1.8,35.3,5.8l1.6,56.3c-6.2-6.2-17.7-14.6-31.3-14.6
		c-8.4,0-16.2,3.3-21.5,9.1c-5.1,5.5-7.8,13.3-7.8,21.1c0,8,2.9,15.7,8.7,21.3c4.4,4.2,11.3,8.4,22,8.4c15.1,0,25.5-9.1,29.9-14
		L456.5,214.5z"/>
	<path class="st1" d="M481,217.2v-148h66.8c15.5,0,31.7,1.8,45.2,15.3c7.5,7.5,14,18.9,14,36.4c0,13.1-4,21.3-8.2,26.4
		c-4.4,5.5-11.8,10-20.4,11.8v1.3c2.9,1.6,5.8,3.8,7.8,6.9l33.3,49.9h-61.9l-21.3-43.3c-0.7-1.6-1.3-2.2-2-4.7l-0.9,0.5v47.5H481z
		 M533.3,135.1h6.2c3.1,0,8-0.5,11.3-3.3c1.8-1.6,3.8-4.4,3.8-9.1c0-3.3-0.9-6.6-2.9-8.9c-1.8-2-4.7-4-9.1-4h-9.3V135.1z"/>
	<path class="st1" d="M611.3,69.2h60.8l12.6,27.1c0.9,2,2.7,6.2,4,11.8h1.6c1.1-6.2,2.7-8.4,4-11.8l11.5-27.1h60.6l-50.6,84.3v63.7
		h-53v-63.7L611.3,69.2z"/>
	<path class="st1" d="M779.7,217.2v-148h71c23.5,0,37,9.5,43.3,15.5c12.2,12,15.1,27.1,15.1,38.8c0,12.2-2.7,26.2-14.6,37
		c-11.8,10.7-25.1,12-36.4,12h-26v44.6H779.7z M832.1,135.3h9.1c2.7,0,8.2-0.2,12-4c2-1.8,3.5-4.7,3.5-9.1c0-4.7-2-7.5-4-9.1
		c-2.4-2-6.9-3.3-10.9-3.3h-9.8V135.3z"/>
	<path class="st1" d="M950.2,217.2V116l-30.2,1.3V69.2h113.1v48.1L1003,116v101.1H950.2z"/>
	<path class="st1" d="M1049.6,217.2v-148h98.7v42.2h-45v15.1h39.5v39h-39.5v51.7H1049.6z"/>
	<path class="st1" d="M1306.8,196.8c-12.6,12.9-33.3,23.7-61.4,23.7c-28.2,0-48.8-10.9-61.4-23.7c-11.5-11.8-20.6-29.9-20.6-53.7
		c0-23.5,9.1-41.7,20.6-53.5c12.6-12.9,33.3-23.7,61.4-23.7c28.2,0,48.8,10.9,61.4,23.7c11.5,11.8,20.6,29.9,20.6,53.5
		C1327.4,166.8,1318.3,185,1306.8,196.8z M1226,121.1c-5.3,5.5-8.4,14.2-8.4,22.2c0,8.4,3.1,16.6,8.4,22c4.4,4.4,11.1,7.5,19.3,7.5
		c8.2,0,14.9-3.1,19.3-7.5c4.9-4.9,8.4-12.6,8.4-22c0-9.3-3.1-17.1-8.4-22.2c-4-4-10.4-7.5-19.3-7.5
		C1235.8,113.6,1229.6,117.3,1226,121.1z"/>
	<path class="st1" d="M1350.6,217.2v-148h53.7v100.3h45.2v47.7H1350.6z"/>
	<path class="st1" d="M1467.5,217.2v-148h53.7v148H1467.5z"/>
	<path class="st1" d="M1687.8,196.8c-12.6,12.9-33.3,23.7-61.4,23.7c-28.2,0-48.8-10.9-61.4-23.7c-11.5-11.8-20.6-29.9-20.6-53.7
		c0-23.5,9.1-41.7,20.6-53.5c12.6-12.9,33.3-23.7,61.4-23.7c28.2,0,48.8,10.9,61.4,23.7c11.5,11.8,20.6,29.9,20.6,53.5
		C1708.5,166.8,1699.4,185,1687.8,196.8z M1607.1,121.1c-5.3,5.5-8.4,14.2-8.4,22.2c0,8.4,3.1,16.6,8.4,22
		c4.4,4.4,11.1,7.5,19.3,7.5c8.2,0,14.9-3.1,19.3-7.5c4.9-4.9,8.4-12.6,8.4-22c0-9.3-3.1-17.1-8.4-22.2c-4-4-10.4-7.5-19.3-7.5
		C1616.8,113.6,1610.6,117.3,1607.1,121.1z"/>
</g>
</svg>
