<?xml version="1.0" encoding="utf-8"?>
<!-- Generator: Adobe Illustrator 25.2.0, SVG Export Plug-In . SVG Version: 6.00 Build 0)  -->
<svg version="1.1" id="Layer_1" xmlns="http://www.w3.org/2000/svg" xmlns:xlink="http://www.w3.org/1999/xlink" x="0px" y="0px"
	 viewBox="0 0 302.5 254" style="enable-background:new 0 0 302.5 254;" xml:space="preserve">
<style type="text/css">
	.st0{fill:none;stroke:#FFFFFF;stroke-width:13;}
</style>
<path class="st0" d="M104.1,17.6H30.3c-9.3,0-16.8,7.7-16.8,16.8l0,0V46l0,38.7v116c0,21.3,17.4,38.7,38.7,38.7h196.3
	c21.3,0,38.7-17.4,38.7-38.7v-116c0-21.3-17.4-38.7-38.7-38.7H146.6L104.1,17.6z"/>
<g>
	<circle class="st0" cx="150.1" cy="82.8" r="11"/>
	<circle class="st0" cx="150.5" cy="203.5" r="11"/>
	<circle class="st0" cx="89.8" cy="111.9" r="11"/>
	<circle class="st0" cx="210.5" cy="111.5" r="11"/>
	<circle class="st0" cx="90.2" cy="174.6" r="11"/>
	<circle class="st0" cx="210.9" cy="174.3" r="11"/>
	<line class="st0" x1="210.8" y1="163.3" x2="210.6" y2="122.5"/>
	<line class="st0" x1="90.1" y1="163.7" x2="89.9" y2="122.9"/>
	<line class="st0" x1="140.6" y1="140.5" x2="99.4" y2="117.3"/>
	<line class="st0" x1="150.2" y1="93.8" x2="150.3" y2="137.1"/>
	<line class="st0" x1="201" y1="116.9" x2="159.8" y2="140.6"/>
	<line class="st0" x1="200.9" y1="169.6" x2="161.2" y2="151"/>
	<line class="st0" x1="150.5" y1="192.6" x2="150.4" y2="154.8"/>
	<line class="st0" x1="100.1" y1="169.9" x2="140.4" y2="150.7"/>
	<line class="st0" x1="99.7" y1="107.1" x2="140.3" y2="87.6"/>
	<line class="st0" x1="200.6" y1="106.8" x2="160" y2="87.6"/>
	<line class="st0" x1="100.1" y1="179.4" x2="140.6" y2="198.8"/>
	<line class="st0" x1="201" y1="179.1" x2="160.4" y2="198.8"/>
	<circle class="st0" cx="150.2" cy="146" r="11"/>
</g>
</svg>
